<svg width="900" height="900" viewBox="0 0 900 900" fill="none" xmlns="http://www.w3.org/2000/svg">
  <defs>
    <linearGradient id="g1" x1="200" y1="100" x2="700" y2="800" gradientUnits="userSpaceOnUse">
      <stop stop-color="#2563EB"/>
      <stop offset="1" stop-color="#0F172A"/>
    </linearGradient>
    <linearGradient id="g2" x1="300" y1="200" x2="650" y2="700" gradientUnits="userSpaceOnUse">
      <stop stop-color="#FFFFFF" stop-opacity="0.95"/>
      <stop offset="1" stop-color="#E2E8F0" stop-opacity="0.9"/>
    </linearGradient>
  </defs>
  <rect x="120" y="90" width="660" height="720" rx="56" fill="url(#g1)"/>
  <rect x="180" y="150" width="540" height="600" rx="40" fill="white" fill-opacity="0.08"/>
  <circle cx="450" cy="410" r="118" fill="url(#g2)"/>
  <circle cx="450" cy="410" r="66" fill="#0F172A"/>
  <rect x="432" y="472" width="36" height="126" rx="18" fill="url(#g2)"/>
  <rect x="402" y="582" width="96" height="34" rx="17" fill="#E2E8F0"/>
  <rect x="386" y="616" width="128" height="22" rx="11" fill="#CBD5E1"/>
  <path d="M450 362C475 362 495 382 495 407C495 432 475 452 450 452C425 452 405 432 405 407C405 382 425 362 450 362Z" fill="#0F172A"/>
  <rect x="590" y="190" width="78" height="78" rx="22" fill="#FFFFFF" fill-opacity="0.16"/>
  <rect x="232" y="660" width="92" height="92" rx="26" fill="#FFFFFF" fill-opacity="0.12"/>
</svg>